<?xml version="1.0" encoding="utf-8"?>
<svg version="1.1" xmlns:xlink="http://www.w3.org/1999/xlink" width="13px" height="13px" viewBox="444 41  13 13" xmlns="http://www.w3.org/2000/svg">
  <path d="M 450.5 41  C 454.14 41  457 43.86  457 47.5  C 457 51.14  454.14 54  450.5 54  C 446.86 54  444 51.14  444 47.5  C 444 43.86  446.86 41  450.5 41  Z " fill-rule="nonzero" fill="#ffffff" stroke="none" />
  <path d="M 450.5 41.5  C 453.86 41.5  456.5 44.14  456.5 47.5  C 456.5 50.86  453.86 53.5  450.5 53.5  C 447.14 53.5  444.5 50.86  444.5 47.5  C 444.5 44.14  447.14 41.5  450.5 41.5  Z " stroke-width="1" stroke="#797979" fill="none" />
  <path d="M 450.5 50.75  C 448.68 50.75  447.25 49.32  447.25 47.5  C 447.25 45.68  448.68 44.25  450.5 44.25  C 452.32 44.25  453.75 45.68  453.75 47.5  C 453.75 49.32  452.32 50.75  450.5 50.75  " fill-rule="nonzero" fill="#797979" stroke="none" />
</svg>