<?xml version="1.0" encoding="utf-8"?>
<svg version="1.1" xmlns:xlink="http://www.w3.org/1999/xlink" width="13px" height="13px" viewBox="308 101  13 13" xmlns="http://www.w3.org/2000/svg">
  <path d="M 314.5 101  C 318.14 101  321 103.86  321 107.5  C 321 111.14  318.14 114  314.5 114  C 310.86 114  308 111.14  308 107.5  C 308 103.86  310.86 101  314.5 101  Z " fill-rule="nonzero" fill="#ffffff" stroke="none" />
  <path d="M 314.5 101.5  C 317.86 101.5  320.5 104.14  320.5 107.5  C 320.5 110.86  317.86 113.5  314.5 113.5  C 311.14 113.5  308.5 110.86  308.5 107.5  C 308.5 104.14  311.14 101.5  314.5 101.5  Z " stroke-width="1" stroke="#797979" fill="none" />
  <path d="M 314.5 110.75  C 312.68 110.75  311.25 109.32  311.25 107.5  C 311.25 105.68  312.68 104.25  314.5 104.25  C 316.32 104.25  317.75 105.68  317.75 107.5  C 317.75 109.32  316.32 110.75  314.5 110.75  " fill-rule="nonzero" fill="#797979" stroke="none" />
</svg>