<?xml version="1.0" encoding="utf-8"?>
<svg version="1.1" xmlns:xlink="http://www.w3.org/1999/xlink" width="13px" height="13px" viewBox="308 131  13 13" xmlns="http://www.w3.org/2000/svg">
  <path d="M 314.5 131  C 318.14 131  321 133.86  321 137.5  C 321 141.14  318.14 144  314.5 144  C 310.86 144  308 141.14  308 137.5  C 308 133.86  310.86 131  314.5 131  Z " fill-rule="nonzero" fill="#ffffff" stroke="none" />
  <path d="M 314.5 131.5  C 317.86 131.5  320.5 134.14  320.5 137.5  C 320.5 140.86  317.86 143.5  314.5 143.5  C 311.14 143.5  308.5 140.86  308.5 137.5  C 308.5 134.14  311.14 131.5  314.5 131.5  Z " stroke-width="1" stroke="#797979" fill="none" />
  <path d="M 314.5 140.75  C 312.68 140.75  311.25 139.32  311.25 137.5  C 311.25 135.68  312.68 134.25  314.5 134.25  C 316.32 134.25  317.75 135.68  317.75 137.5  C 317.75 139.32  316.32 140.75  314.5 140.75  " fill-rule="nonzero" fill="#797979" stroke="none" />
</svg>