<?xml version="1.0" encoding="utf-8"?>
<svg version="1.1" xmlns:xlink="http://www.w3.org/1999/xlink" width="13px" height="13px" viewBox="444 131  13 13" xmlns="http://www.w3.org/2000/svg">
  <path d="M 450.5 131  C 454.14 131  457 133.86  457 137.5  C 457 141.14  454.14 144  450.5 144  C 446.86 144  444 141.14  444 137.5  C 444 133.86  446.86 131  450.5 131  Z " fill-rule="nonzero" fill="#f0f0f0" stroke="none" />
  <path d="M 450.5 131.5  C 453.86 131.5  456.5 134.14  456.5 137.5  C 456.5 140.86  453.86 143.5  450.5 143.5  C 447.14 143.5  444.5 140.86  444.5 137.5  C 444.5 134.14  447.14 131.5  450.5 131.5  Z " stroke-width="1" stroke="#797979" fill="none" />
  <path d="M 450.5 140.75  C 448.68 140.75  447.25 139.32  447.25 137.5  C 447.25 135.68  448.68 134.25  450.5 134.25  C 452.32 134.25  453.75 135.68  453.75 137.5  C 453.75 139.32  452.32 140.75  450.5 140.75  " fill-rule="nonzero" fill="#797979" stroke="none" />
</svg>