<?xml version="1.0" encoding="utf-8"?>
<svg version="1.1" xmlns:xlink="http://www.w3.org/1999/xlink" width="13px" height="13px" viewBox="308 161  13 13" xmlns="http://www.w3.org/2000/svg">
  <path d="M 314.5 161  C 318.14 161  321 163.86  321 167.5  C 321 171.14  318.14 174  314.5 174  C 310.86 174  308 171.14  308 167.5  C 308 163.86  310.86 161  314.5 161  Z " fill-rule="nonzero" fill="#f0f0f0" stroke="none" />
  <path d="M 314.5 161.5  C 317.86 161.5  320.5 164.14  320.5 167.5  C 320.5 170.86  317.86 173.5  314.5 173.5  C 311.14 173.5  308.5 170.86  308.5 167.5  C 308.5 164.14  311.14 161.5  314.5 161.5  Z " stroke-width="1" stroke="#797979" fill="none" />
  <path d="M 314.5 170.75  C 312.68 170.75  311.25 169.32  311.25 167.5  C 311.25 165.68  312.68 164.25  314.5 164.25  C 316.32 164.25  317.75 165.68  317.75 167.5  C 317.75 169.32  316.32 170.75  314.5 170.75  " fill-rule="nonzero" fill="#797979" stroke="none" />
</svg>