<?xml version="1.0" encoding="utf-8"?>
<svg version="1.1" xmlns:xlink="http://www.w3.org/1999/xlink" width="13px" height="13px" viewBox="444 161  13 13" xmlns="http://www.w3.org/2000/svg">
  <path d="M 450.5 161  C 454.14 161  457 163.86  457 167.5  C 457 171.14  454.14 174  450.5 174  C 446.86 174  444 171.14  444 167.5  C 444 163.86  446.86 161  450.5 161  Z " fill-rule="nonzero" fill="#ffffff" stroke="none" />
  <path d="M 450.5 161.5  C 453.86 161.5  456.5 164.14  456.5 167.5  C 456.5 170.86  453.86 173.5  450.5 173.5  C 447.14 173.5  444.5 170.86  444.5 167.5  C 444.5 164.14  447.14 161.5  450.5 161.5  Z " stroke-width="1" stroke="#797979" fill="none" />
  <path d="M 450.5 170.75  C 448.68 170.75  447.25 169.32  447.25 167.5  C 447.25 165.68  448.68 164.25  450.5 164.25  C 452.32 164.25  453.75 165.68  453.75 167.5  C 453.75 169.32  452.32 170.75  450.5 170.75  " fill-rule="nonzero" fill="#797979" stroke="none" />
</svg>