<?xml version="1.0" standalone="no"?><!DOCTYPE svg PUBLIC "-//W3C//DTD SVG 1.1//EN" "http://www.w3.org/Graphics/SVG/1.1/DTD/svg11.dtd"><svg t="1687786163293" class="icon" viewBox="0 0 1024 1024" version="1.1" xmlns="http://www.w3.org/2000/svg" p-id="2384" xmlns:xlink="http://www.w3.org/1999/xlink" width="200" height="200"><path d="M698.0096 932.864c0 15.9744-12.8 29.184-28.9792 29.184h-460.288C130.048 962.4064 51.2 908.9024 51.2 830.5152V204.2368C51.2 125.8496 129.9968 51.2 209.2032 51.2h546.6624c79.2576 0 129.0752 74.6496 129.0752 153.088v130.3552a28.16 28.16 0 0 1-28.4672 28.672 28.16 28.16 0 0 1-28.4672-28.672V204.288c0-46.9504-25.1392-97.1776-72.6016-97.1776H209.2032c-47.4112 0-101.5296 50.2272-101.5296 97.1776v625.8176c0 46.9504 53.6064 73.728 101.5296 73.728h460.288a29.184 29.184 0 0 1 28.5184 29.1328z m-28.4672-625.3056c0-15.5136-12.8-28.16-28.9792-28.16H266.6496a28.5184 28.5184 0 0 0-28.9792 28.16c0 15.4624 12.8 28.16 28.9792 28.16h373.9136c15.6672-0.512 28.9792-12.6976 28.9792-28.16z m-102.5024 198.144c0-15.5136-12.8-28.2112-28.4672-28.2112H251.392a28.416 28.416 0 0 0-28.4672 28.16c0 15.5136 12.8 28.16 28.4672 28.16h287.1296a28.672 28.672 0 0 0 28.4672-28.16zM266.6496 677.888a28.5184 28.5184 0 0 0-28.9792 28.16c0 15.5136 12.8 28.16 28.9792 28.16H439.296a28.5184 28.5184 0 0 0 28.9792-28.16c0-15.4624-12.8-28.16-28.9792-28.16H266.6496z m638.72-124.5696l-162.8672 275.5584c-4.864 8.192-7.7824 17.6128-16.9472 21.2992l-77.4656 24.3712a44.032 44.032 0 0 1-61.8496-34.4576l-21.2992-82.176c-1.3312-9.6256-3.6864-21.9648 1.2288-30.208l160.3584-275.2512c18.7392-31.744 48.8448-54.784 81.664-36.352l88.4736 45.2608c32.4608 18.2784 27.4432 60.2112 8.704 91.9552z m-158.208-55.296l115.0976 58.368 21.7088-31.488c7.3728-10.752 4.8128-32.1024-8.1408-38.4l-69.12-35.4816c-12.9024-6.2464-29.8496-2.048-37.4272 8.96l-22.1184 38.0416z m-35.84 304.4864l134.9632-223.5392-111.616-59.5968-127.4368 219.4432 27.3408 88.4736-2.4576-1.536 79.2064-23.2448z" fill="#ffffff" p-id="2385"></path></svg>