<svg t="1685700923900" class="icon" viewBox="0 0 1024 1024" version="1.1" xmlns="http://www.w3.org/2000/svg" p-id="2437" width="200" height="200"><path d="M897.28 85.333333h-750.933333c-28.16 0-51.2 23.04-51.2 51.2v750.933334c0 28.16 23.04 51.2 51.2 51.2h276.906666c18.773333 0 34.133333-15.36 34.133334-34.133334s-15.36-34.133333-34.133334-34.133333H163.413333V153.6h716.8v275.626667c0 18.773333 15.36 34.133333 34.133334 34.133333s34.133333-15.36 34.133333-34.133333V136.533333c0-28.16-22.613333-51.2-51.2-51.2z" fill="#1296db" p-id="2438"></path><path d="M649.813333 315.733333h-324.266666c-18.773333 0-34.133333-15.36-34.133334-34.133333s15.36-34.133333 34.133334-34.133333h324.266666c18.773333 0 34.133333 15.36 34.133334 34.133333s-14.933333 34.133333-34.133334 34.133333zM564.48 452.266667h-238.933333c-18.773333 0-34.133333-15.36-34.133334-34.133334s15.36-34.133333 34.133334-34.133333h238.933333c18.773333 0 34.133333 15.36 34.133333 34.133333s-14.933333 34.133333-34.133333 34.133334zM479.146667 588.8h-153.6c-18.773333 0-34.133333-15.36-34.133334-34.133333s15.36-34.133333 34.133334-34.133334h153.6c18.773333 0 34.133333 15.36 34.133333 34.133334s-14.933333 34.133333-34.133333 34.133333zM743.68 529.066667c-113.066667 0-204.8 91.733333-204.8 204.8s91.733333 204.8 204.8 204.8 204.8-91.733333 204.8-204.8c0-112.64-91.306667-204.8-204.8-204.8z m0 341.333333c-75.093333 0-136.533333-61.44-136.533333-136.533333s61.013333-136.533333 136.533333-136.533334 136.533333 61.44 136.533333 136.533334c0 75.52-61.013333 136.533333-136.533333 136.533333z" fill="#1296db" p-id="2439"></path><path d="M709.546667 810.666667c-18.773333 0-34.133333-15.36-34.133334-34.133334v-85.333333c0-18.773333 15.36-34.133333 34.133334-34.133333s34.133333 15.36 34.133333 34.133333v85.333333c0 18.773333-14.933333 34.133333-34.133333 34.133334z" fill="#1296db" p-id="2440"></path><path d="M675.413333 776.533333c0-18.773333 15.36-34.133333 34.133334-34.133333h85.333333c18.773333 0 34.133333 15.36 34.133333 34.133333s-15.36 34.133333-34.133333 34.133334h-85.333333c-18.773333 0-34.133333-15.36-34.133334-34.133334z" fill="#1296db" p-id="2441"></path></svg>