<?xml version="1.0" encoding="utf-8"?>
<svg version="1.1" xmlns:xlink="http://www.w3.org/1999/xlink" width="13px" height="13px" viewBox="189 154  13 13" xmlns="http://www.w3.org/2000/svg">
  <path d="M 195.5 154  C 199.14 154  202 156.86  202 160.5  C 202 164.14  199.14 167  195.5 167  C 191.86 167  189 164.14  189 160.5  C 189 156.86  191.86 154  195.5 154  Z " fill-rule="nonzero" fill="#ffffff" stroke="none" />
  <path d="M 195.5 154.5  C 198.86 154.5  201.5 157.14  201.5 160.5  C 201.5 163.86  198.86 166.5  195.5 166.5  C 192.14 166.5  189.5 163.86  189.5 160.5  C 189.5 157.14  192.14 154.5  195.5 154.5  Z " stroke-width="1" stroke="#797979" fill="none" />
  <path d="M 195.5 163.75  C 193.68 163.75  192.25 162.32  192.25 160.5  C 192.25 158.68  193.68 157.25  195.5 157.25  C 197.32 157.25  198.75 158.68  198.75 160.5  C 198.75 162.32  197.32 163.75  195.5 163.75  " fill-rule="nonzero" fill="#797979" stroke="none" />
</svg>