<?xml version="1.0" encoding="utf-8"?>
<svg version="1.1" xmlns:xlink="http://www.w3.org/1999/xlink" width="13px" height="13px" viewBox="288 154  13 13" xmlns="http://www.w3.org/2000/svg">
  <path d="M 294.5 154  C 298.14 154  301 156.86  301 160.5  C 301 164.14  298.14 167  294.5 167  C 290.86 167  288 164.14  288 160.5  C 288 156.86  290.86 154  294.5 154  Z " fill-rule="nonzero" fill="#f0f0f0" stroke="none" />
  <path d="M 294.5 154.5  C 297.86 154.5  300.5 157.14  300.5 160.5  C 300.5 163.86  297.86 166.5  294.5 166.5  C 291.14 166.5  288.5 163.86  288.5 160.5  C 288.5 157.14  291.14 154.5  294.5 154.5  Z " stroke-width="1" stroke="#797979" fill="none" />
  <path d="M 294.5 163.75  C 292.68 163.75  291.25 162.32  291.25 160.5  C 291.25 158.68  292.68 157.25  294.5 157.25  C 296.32 157.25  297.75 158.68  297.75 160.5  C 297.75 162.32  296.32 163.75  294.5 163.75  " fill-rule="nonzero" fill="#797979" stroke="none" />
</svg>