<?xml version="1.0" encoding="utf-8"?>
<svg version="1.1" xmlns:xlink="http://www.w3.org/1999/xlink" width="13px" height="13px" viewBox="495 154  13 13" xmlns="http://www.w3.org/2000/svg">
  <path d="M 501.5 154  C 505.14 154  508 156.86  508 160.5  C 508 164.14  505.14 167  501.5 167  C 497.86 167  495 164.14  495 160.5  C 495 156.86  497.86 154  501.5 154  Z " fill-rule="nonzero" fill="#ffffff" stroke="none" />
  <path d="M 501.5 154.5  C 504.86 154.5  507.5 157.14  507.5 160.5  C 507.5 163.86  504.86 166.5  501.5 166.5  C 498.14 166.5  495.5 163.86  495.5 160.5  C 495.5 157.14  498.14 154.5  501.5 154.5  Z " stroke-width="1" stroke="#797979" fill="none" />
  <path d="M 501.5 163.75  C 499.68 163.75  498.25 162.32  498.25 160.5  C 498.25 158.68  499.68 157.25  501.5 157.25  C 503.32 157.25  504.75 158.68  504.75 160.5  C 504.75 162.32  503.32 163.75  501.5 163.75  " fill-rule="nonzero" fill="#797979" stroke="none" />
</svg>