<?xml version="1.0" encoding="utf-8"?>
<svg version="1.1" xmlns:xlink="http://www.w3.org/1999/xlink" width="40px" height="40px" xmlns="http://www.w3.org/2000/svg">
  <g transform="matrix(1 0 0 1 -34 -252 )">
    <path d="M 18.654708520179373 30  L 19.91031390134529 30  L 22.511210762331835 26.704545454545453  L 19.103139013452914 22.386363636363633  L 16.50224215246637 25.681818181818183  L 16.50224215246637 27.272727272727273  L 18.654708520179373 27.272727272727273  L 18.654708520179373 30  Z M 29.753363228699552 10.482954545454547  C 30.007473841554564 10.160984848484844  30.01494768310912 9.848484848484844  29.77578475336323 9.545454545454547  C 29.53662182361734 9.242424242424239  29.289985052316894 9.251893939393936  29.03587443946188 9.573863636363637  L 21.18834080717489 19.517045454545453  C 20.93423019431988 19.839015151515152  20.92675635276532 20.15151515151515  21.16591928251121 20.454545454545453  C 21.405082212257103 20.757575757575758  21.65171898355755 20.748106060606055  21.90582959641256 20.426136363636367  L 29.753363228699552 10.482954545454547  Z M 31.121076233183857 25.596590909090907  C 31.42002989536622 25.748106060606055  31.569506726457398 26.022727272727273  31.569506726457398 26.420454545454547  L 31.569506726457398 31.818181818181817  C 31.569506726457398 34.071969696969695  30.937967115097162 35.99905303030303  29.67488789237668 37.59943181818181  C 28.411808669656207 39.19981060606061  26.89088191330344 40  25.112107623318387 40  L 6.457399103139013 40  C 4.678624813153961 40  3.1576980568011956 39.19981060606061  1.8946188340807173 37.59943181818181  C 0.6315396113602391 35.99905303030303  0 34.071969696969695  0 31.818181818181817  L 0 8.181818181818183  C 0 5.928030303030298  0.6315396113602391 4.000946969696968  1.8946188340807173 2.4005681818181834  C 3.1576980568011956 0.80018939393939  4.678624813153961 0  6.457399103139013 0  L 25.112107623318387 0  C 26.053811659192828 0  26.928251121076233 0.2367424242424221  27.73542600896861 0.7102272727272707  C 27.95964125560538 0.8428030303030276  28.09417040358744 1.0606060606060597  28.1390134529148 1.3636363636363624  C 28.18385650224215 1.6856060606060597  28.11659192825112 1.9602272727272707  27.937219730941703 2.1875  L 26.838565022421523 3.579545454545454  C 26.629297458893873 3.844696969696968  26.390134529147986 3.920454545454546  26.121076233183857 3.8068181818181834  C 25.777279521674142 3.6931818181818166  25.440956651718984 3.6363636363636376  25.112107623318387 4  L 6.457399103139013 4  C 5.47085201793722 3.6363636363636376  4.626307922272049 4.08143939393939  3.923766816143498 4.971590909090908  C 3.221225710014948 5.861742424242422  2.8699551569506725 6.931818181818183  3 8.181818181818183  L 3 31.818181818181817  C 2.8699551569506725 33.06818181818181  3.221225710014948 34.13825757575757  3.923766816143498 35.02840909090909  C 4.626307922272049 35.91856060606061  5.47085201793722 36.36363636363636  6.457399103139013 36  L 25.112107623318387 36  C 26.09865470852018 36.36363636363636  26.94319880418535 35.91856060606061  27.645739910313903 35.02840909090909  C 28.348281016442453 34.13825757575757  28.699551569506724 33.06818181818181  28.699551569506724 31.818181818181817  L 28.699551569506724 28.238636363636367  C 28.699551569506724 27.99242424242424  28.76681614349776 27.784090909090907  28.90134529147982 27.613636363636367  L 30.336322869955158 25.795454545454547  C 30.56053811659193 25.511363636363633  30.822122571001497 25.445075757575758  31.121076233183857 25.596590909090907  Z M 14.349775784753362 24.545454545454547  L 29.417040358744394 5.454545454545454  L 35.87443946188341 13.636363636363637  L 20.807174887892373 32.72727272727273  L 14.349775784753362 32.72727272727273  L 14.349775784753362 24.545454545454547  Z M 40 7.272727272727271  C 40 8.030303030303028  39.79073243647235 8.674242424242422  39.37219730941704 9.204545454545453  L 37.309417040358746 11.818181818181817  L 30.85201793721973 3.6363636363636376  L 32.91479820627803 1.0227272727272707  C 33.333333333333336 0.49242424242423866  33.84155455904335 0.2272727272727293  34.43946188340807 0.2272727272727293  C 35.0373692077728 0.2272727272727293  35.545590433482815 0.49242424242423866  35.96412556053812 1.0227272727272707  L 39.37219730941704 5.340909090909092  C 39.79073243647235 5.871212121212115  40 6.515151515151514  40 7.272727272727271  Z " fill-rule="nonzero" fill="#ffffff" stroke="none" transform="matrix(1 0 0 1 34 252 )" />
  </g>
</svg>