<?xml version="1.0" encoding="utf-8"?>
<svg version="1.1" xmlns:xlink="http://www.w3.org/1999/xlink" width="40px" height="40px" xmlns="http://www.w3.org/2000/svg">
  <g transform="matrix(1 0 0 1 -34 -332 )">
    <path d="M 24.53125 24.53125  C 26.638621794871796 22.423878205128204  27.692307692307693 19.88782051282051  27.692307692307693 16.923076923076927  C 27.692307692307693 13.95833333333333  26.638621794871796 11.422275641025639  24.53125 9.314903846153847  C 22.423878205128208 7.207532051282048  19.887820512820515 6.153846153846154  16.923076923076923 6.153846153846154  C 13.958333333333336 6.153846153846154  11.422275641025642 7.207532051282048  9.314903846153847 9.314903846153847  C 7.207532051282052 11.422275641025639  6.153846153846154 13.95833333333333  6.153846153846154 16.923076923076927  C 6.153846153846154 19.88782051282051  7.207532051282052 22.423878205128204  9.314903846153847 24.53125  C 11.422275641025642 26.63862179487179  13.958333333333336 27.692307692307693  16.923076923076923 27.692307692307693  C 19.887820512820515 27.692307692307693  22.423878205128208 26.63862179487179  24.53125 24.53125  Z M 39.11057692307693 34.75961538461539  C 39.70352564102564 35.3525641025641  40 36.07371794871795  40 36.92307692307693  C 40 37.75641025641026  39.695512820512825 38.4775641025641  39.08653846153846 39.08653846153846  C 38.4775641025641 39.69551282051282  37.75641025641026 40  36.92307692307693 40  C 36.05769230769231 40  35.33653846153846 39.69551282051282  34.75961538461539 39.08653846153846  L 26.514423076923073 30.865384615384617  C 23.645833333333336 32.8525641025641  20.448717948717952 33.84615384615385  16.923076923076923 33.84615384615385  C 14.631410256410257 33.84615384615385  12.439903846153847 33.40144230769231  10.348557692307692 32.51201923076923  C 8.257211538461538 31.622596153846153  6.454326923076923 30.420673076923073  4.939903846153847 28.90625  C 3.425480769230769 27.391826923076927  2.2235576923076925 25.588942307692307  1.3341346153846154 23.497596153846153  C 0.4447115384615385 21.40625  0 19.214743589743584  0 16.923076923076927  C 0 14.631410256410252  0.4447115384615385 12.439903846153847  1.3341346153846154 10.348557692307692  C 2.2235576923076925 8.257211538461537  3.425480769230769 6.454326923076925  4.939903846153847 4.939903846153846  C 6.454326923076923 3.425480769230771  8.257211538461538 2.2235576923076916  10.348557692307692 1.3341346153846168  C 12.439903846153847 0.44471153846153744  14.631410256410257 0  16.923076923076923 0  C 19.21474358974359 0  21.40625 0.44471153846153744  23.497596153846153 1.3341346153846168  C 25.588942307692307 2.2235576923076916  27.391826923076927 3.425480769230771  28.90625 4.939903846153846  C 30.420673076923073 6.454326923076925  31.622596153846153 8.257211538461537  32.512019230769226 10.348557692307692  C 33.40144230769231 12.439903846153847  33.84615384615385 14.631410256410252  33.84615384615385 16.923076923076927  C 33.84615384615385 20.44871794871795  32.8525641025641 23.64583333333333  30.865384615384617 26.514423076923073  L 39.11057692307693 34.75961538461539  Z " fill-rule="nonzero" fill="#ffffff" stroke="none" transform="matrix(1 0 0 1 34 332 )" />
  </g>
</svg>