<?xml version="1.0" encoding="utf-8"?>
<svg version="1.1" xmlns:xlink="http://www.w3.org/1999/xlink" width="40px" height="40px" xmlns="http://www.w3.org/2000/svg">
  <g transform="matrix(1 0 0 1 -34 -411 )">
    <path d="M 22.857142857142854 32  L 22.857142857142854 36  L 37.142857142857146 36  L 37.142857142857146 32  L 22.857142857142854 32  Z M 14.285714285714286 18.181818181818183  L 14.285714285714286 21.818181818181817  L 37.142857142857146 21.818181818181817  L 37.142857142857146 18.181818181818183  L 14.285714285714286 18.181818181818183  Z M 28.571428571428573 3.6363636363636376  L 28.571428571428573 7.272727272727271  L 37.142857142857146 7.272727272727271  L 37.142857142857146 3.6363636363636376  L 28.571428571428573 3.6363636363636376  Z M 39.575892857142854 29.630681818181817  C 39.858630952380956 29.990530303030297  40 30.41666666666666  40 30.909090909090907  L 40 38.18181818181819  C 40 38.67424242424242  39.858630952380956 39.10037878787878  39.575892857142854 39.46022727272727  C 39.293154761904766 39.820075757575765  38.958333333333336 40  38.57142857142857 40  L 1.4285714285714284 40  C 1.0416666666666667 40  0.7068452380952381 39.820075757575765  0.4241071428571429 39.46022727272727  C 0.14136904761904762 39.10037878787878  0 38.67424242424242  0 38.18181818181819  L 0 30.909090909090907  C 0 30.41666666666666  0.14136904761904762 29.990530303030297  0.4241071428571429 29.630681818181817  C 0.7068452380952381 29.27083333333334  1.0416666666666667 29.090909090909093  1.4285714285714284 29  L 38.57142857142857 29  C 38.958333333333336 29.090909090909093  39.293154761904766 29.27083333333334  39.575892857142854 29.630681818181817  Z M 39.575892857142854 15.08522727272727  C 39.858630952380956 15.445075757575752  40 15.871212121212114  40 16.363636363636363  L 40 23.636363636363633  C 40 24.128787878787875  39.858630952380956 24.55492424242424  39.575892857142854 24.914772727272727  C 39.293154761904766 25.27462121212121  38.958333333333336 25.454545454545453  38.57142857142857 25  L 1.4285714285714284 25  C 1.0416666666666667 25.454545454545453  0.7068452380952381 25.27462121212121  0.4241071428571429 24.914772727272727  C 0.14136904761904762 24.55492424242424  0 24.128787878787875  0 23.636363636363633  L 0 16.363636363636363  C 0 15.871212121212114  0.14136904761904762 15.445075757575752  0.4241071428571429 15.08522727272727  C 0.7068452380952381 14.725378787878785  1.0416666666666667 14.545454545454547  1.4285714285714284 15  L 38.57142857142857 15  C 38.958333333333336 14.545454545454547  39.293154761904766 14.725378787878785  39.575892857142854 15.08522727272727  Z M 39.575892857142854 0.5397727272727293  C 39.858630952380956 0.8996212121212066  40 1.3257575757575735  40 1.8181818181818166  L 40 9.090909090909092  C 40 9.58333333333333  39.858630952380956 10.009469696969692  39.575892857142854 10.369318181818183  C 39.293154761904766 10.72916666666666  38.958333333333336 10.909090909090908  38.57142857142857 11  L 1.4285714285714284 11  C 1.0416666666666667 10.909090909090908  0.7068452380952381 10.72916666666666  0.4241071428571429 10.369318181818183  C 0.14136904761904762 10.009469696969692  0 9.58333333333333  0 9.090909090909092  L 0 1.8181818181818166  C 0 1.3257575757575735  0.14136904761904762 0.8996212121212066  0.4241071428571429 0.5397727272727293  C 0.7068452380952381 0.17992424242423866  1.0416666666666667 0  1.4285714285714284 0  L 38.57142857142857 0  C 38.958333333333336 0  39.293154761904766 0.17992424242423866  39.575892857142854 0.5397727272727293  Z " fill-rule="nonzero" fill="#ffffff" stroke="none" transform="matrix(1 0 0 1 34 411 )" />
  </g>
</svg>