<?xml version="1.0" encoding="utf-8"?>
<svg version="1.1" xmlns:xlink="http://www.w3.org/1999/xlink" width="40px" height="40px" xmlns="http://www.w3.org/2000/svg">
  <g transform="matrix(1 0 0 1 -34 -492 )">
    <path d="M 19.27734375 28.89322916666667  C 19.759114583333336 28.155381944444436  20 27.23090277777778  20 26.11979166666667  C 20 25.008680555555554  19.94140625 23.98871527777778  19.82421875 23.05989583333333  C 19.70703125 22.131076388888886  19.514973958333336 21.23697916666667  19.248046875 20.37760416666667  C 18.981119791666668 19.518229166666664  18.587239583333336 18.841145833333336  18.06640625 18.346354166666664  C 17.54557291666667 17.8515625  16.914062500000004 17.604166666666664  16.171875 17.604166666666664  C 16.093750000000004 17.67361111111111  15.898437500000002 17.82986111111111  15.5859375 18.072916666666664  C 15.273437500000002 18.315972222222218  15.029296875000002 18.502604166666664  14.853515625 18.6328125  C 14.677734375 18.763020833333336  14.446614583333336 18.914930555555554  14.16015625 19.088541666666664  C 13.873697916666668 19.26215277777778  13.59375 19.388020833333336  13.3203125 19.466145833333336  C 13.046875 19.544270833333336  12.7734375 19.583333333333336  12.5 19.583333333333336  C 12.2265625 19.583333333333336  11.953125 19.544270833333336  11.6796875 19.466145833333336  C 11.40625 19.388020833333336  11.126302083333336 19.26215277777778  10.83984375 19.088541666666664  C 10.553385416666668 18.914930555555554  10.322265625 18.763020833333336  10.146484375 18.6328125  C 9.970703125 18.502604166666664  9.7265625 18.315972222222218  9.4140625 18.072916666666664  C 9.1015625 17.82986111111111  8.90625 17.67361111111111  8.828125 17.604166666666664  C 8.0859375 17.604166666666664  7.454427083333334 17.8515625  6.93359375 18.346354166666664  C 6.412760416666668 18.841145833333336  6.018880208333334 19.518229166666664  5.751953125 20.37760416666667  C 5.485026041666668 21.23697916666667  5.29296875 22.131076388888886  5.17578125 23.05989583333333  C 5.05859375 23.98871527777778  5 25.008680555555554  5 26.11979166666667  C 5 27.23090277777778  5.240885416666668 28.155381944444436  5.72265625 28.89322916666667  C 6.204427083333334 29.631076388888886  6.796875 30  7.5 30  L 17.5 30  C 18.203125 30  18.795572916666668 29.631076388888886  19.27734375 28.89322916666667  Z M 15.634765625 16.7578125  C 16.50065104166667 15.603298611111107  16.933593750000004 14.210069444444443  16.93359375 12.578125  C 16.933593750000004 10.946180555555554  16.50065104166667 9.55295138888889  15.634765625 8.3984375  C 14.768880208333336 7.243923611111107  13.723958333333336 6.666666666666665  12.5 6.666666666666665  C 11.276041666666668 6.666666666666665  10.231119791666668 7.243923611111107  9.365234375 8.3984375  C 8.499348958333334 9.55295138888889  8.06640625 10.946180555555554  8.06640625 12.578125  C 8.06640625 14.210069444444443  8.499348958333334 15.603298611111107  9.365234375 16.7578125  C 10.231119791666668 17.91232638888889  11.276041666666668 18.489583333333336  12.5 18.489583333333336  C 13.723958333333336 18.489583333333336  14.768880208333336 17.91232638888889  15.634765625 16.7578125  Z M 34.82421875 26.43229166666667  C 34.94140625 26.27604166666667  35 26.076388888888886  35 25.83333333333333  L 35 24.16666666666667  C 35 23.923611111111107  34.94140625 23.72395833333333  34.82421875 23.56770833333333  C 34.70703125 23.41145833333333  34.55729166666667 23.33333333333333  34.375 23  L 23.125 23  C 22.942708333333336 23.33333333333333  22.79296875 23.41145833333333  22.67578125 23.56770833333333  C 22.55859375 23.72395833333333  22.5 23.923611111111107  22.5 24.16666666666667  L 22.5 25.83333333333333  C 22.5 26.076388888888886  22.55859375 26.27604166666667  22.67578125 26.43229166666667  C 22.79296875 26.58854166666667  22.942708333333336 26.66666666666667  23.125 26  L 34.375 26  C 34.55729166666667 26.66666666666667  34.70703125 26.58854166666667  34.82421875 26.43229166666667  Z M 34.794921875 19.7265625  C 34.931640625 19.544270833333336  35 19.322916666666664  35 19.0625  L 35 17.604166666666664  C 35 17.34375  34.931640625 17.122395833333336  34.794921875 16.940104166666664  C 34.658203125 16.7578125  34.4921875 16.666666666666664  34.296875 17  L 23.203125 17  C 23.0078125 16.666666666666664  22.841796875 16.7578125  22.705078125 16.940104166666664  C 22.568359375 17.122395833333336  22.5 17.34375  22.5 17.604166666666664  L 22.5 19.0625  C 22.5 19.322916666666664  22.568359375 19.544270833333336  22.705078125 19.7265625  C 22.841796875 19.908854166666664  23.0078125 20  23.203125 20  L 34.296875 20  C 34.4921875 20  34.658203125 19.908854166666664  34.794921875 19.7265625  Z M 34.82421875 13.098958333333336  C 34.94140625 12.942708333333336  35 12.743055555555554  35 12.5  L 35 10.833333333333336  C 35 10.590277777777771  34.94140625 10.390625  34.82421875 10.234375  C 34.70703125 10.078125  34.55729166666667 10  34.375 10  L 23.125 10  C 22.942708333333336 10  22.79296875 10.078125  22.67578125 10.234375  C 22.55859375 10.390625  22.5 10.590277777777771  22.5 10.833333333333336  L 22.5 12.5  C 22.5 12.743055555555554  22.55859375 12.942708333333336  22.67578125 13.098958333333336  C 22.79296875 13.255208333333336  22.942708333333336 13.333333333333336  23.125 14  L 34.375 14  C 34.55729166666667 13.333333333333336  34.70703125 13.255208333333336  34.82421875 13.098958333333336  Z M 39.08203125 1.2239583333333348  C 39.69401041666667 2.0399305555555536  40 3.020833333333335  40 4.166666666666665  L 40 35.833333333333336  C 40 36.979166666666664  39.69401041666667 37.96006944444444  39.08203125 38.776041666666664  C 38.470052083333336 39.592013888888886  37.734375 40  36.875 40  L 30 40  L 30 37.5  C 30 37.25694444444444  29.94140625 37.057291666666664  29.82421875 36.901041666666664  C 29.70703125 36.744791666666664  29.55729166666667 36.666666666666664  29.375 36.666666666666664  L 28.125 36.666666666666664  C 27.942708333333336 36.666666666666664  27.79296875 36.744791666666664  27.67578125 36.901041666666664  C 27.55859375 37.057291666666664  27.5 37.25694444444444  27.5 37.5  L 27.5 40  L 12.5 40  L 12.5 37.5  C 12.5 37.25694444444444  12.44140625 37.057291666666664  12.32421875 36.901041666666664  C 12.20703125 36.744791666666664  12.057291666666668 36.666666666666664  11.875 36.666666666666664  L 10.625 36.666666666666664  C 10.442708333333336 36.666666666666664  10.29296875 36.744791666666664  10.17578125 36.901041666666664  C 10.05859375 37.057291666666664  10 37.25694444444444  10 37.5  L 10 40  L 3.125 40  C 2.265625 40  1.529947916666667 39.592013888888886  0.91796875 38.776041666666664  C 0.3059895833333333 37.96006944444444  0 36.979166666666664  0 35.833333333333336  L 0 4.166666666666665  C 0 3.020833333333335  0.3059895833333333 2.0399305555555536  0.91796875 1.2239583333333348  C 1.529947916666667 0.40798611111110716  2.265625 0  3.125 0  L 36.875 0  C 37.734375 0  38.470052083333336 0.40798611111110716  39.08203125 1.2239583333333348  Z " fill-rule="nonzero" fill="#ffffff" stroke="none" transform="matrix(1 0 0 1 34 492 )" />
  </g>
</svg>