<?xml version="1.0" encoding="utf-8"?>
<svg version="1.1" xmlns:xlink="http://www.w3.org/1999/xlink" width="13px" height="13px" viewBox="308 41  13 13" xmlns="http://www.w3.org/2000/svg">
  <path d="M 314.5 41  C 318.14 41  321 43.86  321 47.5  C 321 51.14  318.14 54  314.5 54  C 310.86 54  308 51.14  308 47.5  C 308 43.86  310.86 41  314.5 41  Z " fill-rule="nonzero" fill="#f0f0f0" stroke="none" />
  <path d="M 314.5 41.5  C 317.86 41.5  320.5 44.14  320.5 47.5  C 320.5 50.86  317.86 53.5  314.5 53.5  C 311.14 53.5  308.5 50.86  308.5 47.5  C 308.5 44.14  311.14 41.5  314.5 41.5  Z " stroke-width="1" stroke="#797979" fill="none" />
  <path d="M 314.5 50.75  C 312.68 50.75  311.25 49.32  311.25 47.5  C 311.25 45.68  312.68 44.25  314.5 44.25  C 316.32 44.25  317.75 45.68  317.75 47.5  C 317.75 49.32  316.32 50.75  314.5 50.75  " fill-rule="nonzero" fill="#797979" stroke="none" />
</svg>