<?xml version="1.0" encoding="utf-8"?>
<svg version="1.1" xmlns:xlink="http://www.w3.org/1999/xlink" width="13px" height="13px" viewBox="308 71  13 13" xmlns="http://www.w3.org/2000/svg">
  <path d="M 314.5 71  C 318.14 71  321 73.86  321 77.5  C 321 81.14  318.14 84  314.5 84  C 310.86 84  308 81.14  308 77.5  C 308 73.86  310.86 71  314.5 71  Z " fill-rule="nonzero" fill="#f0f0f0" stroke="none" />
  <path d="M 314.5 71.5  C 317.86 71.5  320.5 74.14  320.5 77.5  C 320.5 80.86  317.86 83.5  314.5 83.5  C 311.14 83.5  308.5 80.86  308.5 77.5  C 308.5 74.14  311.14 71.5  314.5 71.5  Z " stroke-width="1" stroke="#797979" fill="none" />
  <path d="M 314.5 80.75  C 312.68 80.75  311.25 79.32  311.25 77.5  C 311.25 75.68  312.68 74.25  314.5 74.25  C 316.32 74.25  317.75 75.68  317.75 77.5  C 317.75 79.32  316.32 80.75  314.5 80.75  " fill-rule="nonzero" fill="#797979" stroke="none" />
</svg>