<?xml version="1.0" encoding="utf-8"?>
<svg version="1.1" xmlns:xlink="http://www.w3.org/1999/xlink" width="13px" height="13px" viewBox="444 71  13 13" xmlns="http://www.w3.org/2000/svg">
  <path d="M 450.5 71  C 454.14 71  457 73.86  457 77.5  C 457 81.14  454.14 84  450.5 84  C 446.86 84  444 81.14  444 77.5  C 444 73.86  446.86 71  450.5 71  Z " fill-rule="nonzero" fill="#f0f0f0" stroke="none" />
  <path d="M 450.5 71.5  C 453.86 71.5  456.5 74.14  456.5 77.5  C 456.5 80.86  453.86 83.5  450.5 83.5  C 447.14 83.5  444.5 80.86  444.5 77.5  C 444.5 74.14  447.14 71.5  450.5 71.5  Z " stroke-width="1" stroke="#797979" fill="none" />
  <path d="M 450.5 80.75  C 448.68 80.75  447.25 79.32  447.25 77.5  C 447.25 75.68  448.68 74.25  450.5 74.25  C 452.32 74.25  453.75 75.68  453.75 77.5  C 453.75 79.32  452.32 80.75  450.5 80.75  " fill-rule="nonzero" fill="#797979" stroke="none" />
</svg>