<?xml version="1.0" encoding="utf-8"?>
<svg version="1.1" xmlns:xlink="http://www.w3.org/1999/xlink" width="13px" height="13px" viewBox="376 131  13 13" xmlns="http://www.w3.org/2000/svg">
  <path d="M 382.5 131  C 386.14 131  389 133.86  389 137.5  C 389 141.14  386.14 144  382.5 144  C 378.86 144  376 141.14  376 137.5  C 376 133.86  378.86 131  382.5 131  Z " fill-rule="nonzero" fill="#ffffff" stroke="none" />
  <path d="M 382.5 131.5  C 385.86 131.5  388.5 134.14  388.5 137.5  C 388.5 140.86  385.86 143.5  382.5 143.5  C 379.14 143.5  376.5 140.86  376.5 137.5  C 376.5 134.14  379.14 131.5  382.5 131.5  Z " stroke-width="1" stroke="#797979" fill="none" />
  <path d="M 382.5 140.75  C 380.68 140.75  379.25 139.32  379.25 137.5  C 379.25 135.68  380.68 134.25  382.5 134.25  C 384.32 134.25  385.75 135.68  385.75 137.5  C 385.75 139.32  384.32 140.75  382.5 140.75  " fill-rule="nonzero" fill="#797979" stroke="none" />
</svg>