<?xml version="1.0" encoding="utf-8"?>
<svg version="1.1" xmlns:xlink="http://www.w3.org/1999/xlink" width="23px" height="25px" xmlns="http://www.w3.org/2000/svg">
  <g transform="matrix(1 0 0 1 -553 -139 )">
    <path d="M 1.7692307692307694 19.19642857142857  L 1.7692307692307694 23.214285714285715  L 5.75 23.214285714285715  L 5.75 19.19642857142857  L 1.7692307692307694 19.19642857142857  Z M 6.634615384615384 19.19642857142857  L 6.634615384615384 23.214285714285715  L 11.057692307692308 23.214285714285715  L 11.057692307692308 19.19642857142857  L 6.634615384615384 19.19642857142857  Z M 1.7692307692307694 13.839285714285715  L 1.7692307692307694 18.30357142857143  L 5.75 18.30357142857143  L 5.75 13.839285714285715  L 1.7692307692307694 13.839285714285715  Z M 6.634615384615384 13.839285714285715  L 6.634615384615384 18.30357142857143  L 11.057692307692308 18.30357142857143  L 11.057692307692308 13.839285714285715  L 6.634615384615384 13.839285714285715  Z M 1.7692307692307694 8.928571428571427  L 1.7692307692307694 12.94642857142857  L 5.75 12.94642857142857  L 5.75 8.928571428571427  L 1.7692307692307694 8.928571428571427  Z M 11.942307692307693 19.19642857142857  L 11.942307692307693 23.214285714285715  L 16.365384615384617 23.214285714285715  L 16.365384615384617 19.19642857142857  L 11.942307692307693 19.19642857142857  Z M 6.634615384615384 8.928571428571427  L 6.634615384615384 12.94642857142857  L 11.057692307692308 12.94642857142857  L 11.057692307692308 8.928571428571427  L 6.634615384615384 8.928571428571427  Z M 17.25 19.19642857142857  L 17.25 23.214285714285715  L 21.230769230769234 23.214285714285715  L 21.230769230769234 19.19642857142857  L 17.25 19.19642857142857  Z M 11.942307692307693 13.839285714285715  L 11.942307692307693 18.30357142857143  L 16.365384615384617 18.30357142857143  L 16.365384615384617 13.839285714285715  L 11.942307692307693 13.839285714285715  Z M 6.945612980769231 6.563895089285715  C 7.033153044871795 6.475539434523808  7.0769230769230775 6.3709077380952355  7.0769230769230775 6.25  L 7.0769230769230775 2.2321428571428577  C 7.0769230769230775 2.111235119047619  7.033153044871795 2.0066034226190466  6.945612980769231 1.9182477678571423  C 6.858072916666668 1.8298921130952355  6.754407051282051 1.785714285714285  6.634615384615384 1.785714285714285  L 5.75 1.785714285714285  C 5.630208333333334 1.785714285714285  5.526542467948718 1.8298921130952355  5.439002403846154 1.9182477678571423  C 5.3514623397435885 2.0066034226190466  5.307692307692308 2.111235119047619  5.307692307692308 2.2321428571428577  L 5.307692307692308 6.25  C 5.307692307692308 6.3709077380952355  5.3514623397435885 6.475539434523808  5.439002403846154 6.563895089285715  C 5.526542467948718 6.6522507440476195  5.630208333333334 6.696428571428573  5.75 6.696428571428573  L 6.634615384615384 6.696428571428573  C 6.754407051282051 6.696428571428573  6.858072916666668 6.6522507440476195  6.945612980769231 6.563895089285715  Z M 17.25 13.839285714285715  L 17.25 18.30357142857143  L 21.230769230769234 18.30357142857143  L 21.230769230769234 13.839285714285715  L 17.25 13.839285714285715  Z M 11.942307692307693 8.928571428571427  L 11.942307692307693 12.94642857142857  L 16.365384615384617 12.94642857142857  L 16.365384615384617 8.928571428571427  L 11.942307692307693 8.928571428571427  Z M 17.25 8.928571428571427  L 17.25 12.94642857142857  L 21.230769230769234 12.94642857142857  L 21.230769230769234 8.928571428571427  L 17.25 8.928571428571427  Z M 17.560997596153847 6.563895089285715  C 17.648537660256412 6.475539434523808  17.692307692307693 6.3709077380952355  17.692307692307693 6.25  L 17.692307692307693 2.2321428571428577  C 17.692307692307693 2.111235119047619  17.648537660256412 2.0066034226190466  17.560997596153847 1.9182477678571423  C 17.473457532051285 1.8298921130952355  17.369791666666668 1.785714285714285  17.25 1.785714285714285  L 16.365384615384617 1.785714285714285  C 16.245592948717952 1.785714285714285  16.141927083333336 1.8298921130952355  16.054387019230766 1.9182477678571423  C 15.966846955128206 2.0066034226190466  15.923076923076923 2.111235119047619  15.923076923076923 2.2321428571428577  L 15.923076923076923 6.25  C 15.923076923076923 6.3709077380952355  15.966846955128206 6.475539434523808  16.054387019230766 6.563895089285715  C 16.141927083333336 6.6522507440476195  16.245592948717952 6.696428571428573  16.365384615384617 6.696428571428573  L 17.25 6.696428571428573  C 17.369791666666668 6.696428571428573  17.473457532051285 6.6522507440476195  17.560997596153847 6.563895089285715  Z M 22.474759615384617 4.1015625  C 22.824919871794872 4.4549851190476195  23 4.873511904761904  23 5.357142857142858  L 23 23.214285714285715  C 23 23.697916666666668  22.824919871794872 24.116443452380953  22.474759615384617 24.469866071428573  C 22.12459935897436 24.82328869047619  21.709935897435898 25  21.230769230769234 25  L 1.7692307692307694 25  C 1.2900641025641029 25  0.8754006410256411 24.82328869047619  0.5252403846153846 24.469866071428573  C 0.1750801282051282 24.116443452380953  0 23.697916666666668  0 23.214285714285715  L 0 5.357142857142858  C 0 4.873511904761904  0.1750801282051282 4.4549851190476195  0.5252403846153846 4.1015625  C 0.8754006410256411 3.748139880952378  1.2900641025641029 3.5714285714285725  1.7692307692307694 3.5714285714285725  L 3.5384615384615388 3.5714285714285725  L 3.5384615384615388 2.2321428571428577  C 3.5384615384615388 1.6183035714285725  3.7550080128205128 1.092819940476189  4.188100961538462 0.6556919642857151  C 4.6211939102564115 0.21856398809523836  5.141826923076923 0  5.75 0  L 6.634615384615384 0  C 7.242788461538462 0  7.763421474358975 0.21856398809523836  8.196514423076923 0.6556919642857151  C 8.629607371794872 1.092819940476189  8.846153846153847 1.6183035714285725  8.846153846153847 2.2321428571428577  L 8.846153846153847 3.5714285714285725  L 14.153846153846155 3.5714285714285725  L 14.153846153846155 2.2321428571428577  C 14.153846153846155 1.6183035714285725  14.37039262820513 1.092819940476189  14.803485576923077 0.6556919642857151  C 15.236578525641029 0.21856398809523836  15.757211538461538 0  16.365384615384617 0  L 17.25 0  C 17.858173076923077 0  18.37880608974359 0.21856398809523836  18.81189903846154 0.6556919642857151  C 19.24499198717949 1.092819940476189  19.46153846153846 1.6183035714285725  19.46153846153846 2.2321428571428577  L 19.46153846153846 3.5714285714285725  L 21.230769230769234 3.5714285714285725  C 21.709935897435898 3.5714285714285725  22.12459935897436 3.748139880952378  22.474759615384617 4.1015625  Z " fill-rule="nonzero" fill="#000000" stroke="none" transform="matrix(1 0 0 1 553 139 )" />
  </g>
</svg>