<?xml version="1.0" encoding="utf-8"?>
<svg version="1.1" xmlns:xlink="http://www.w3.org/1999/xlink" width="13px" height="13px" viewBox="571 195  13 13" xmlns="http://www.w3.org/2000/svg">
  <path d="M 577.5 195  C 581.14 195  584 197.86  584 201.5  C 584 205.14  581.14 208  577.5 208  C 573.86 208  571 205.14  571 201.5  C 571 197.86  573.86 195  577.5 195  Z " fill-rule="nonzero" fill="#f0f0f0" stroke="none" />
  <path d="M 577.5 195.5  C 580.86 195.5  583.5 198.14  583.5 201.5  C 583.5 204.86  580.86 207.5  577.5 207.5  C 574.14 207.5  571.5 204.86  571.5 201.5  C 571.5 198.14  574.14 195.5  577.5 195.5  Z " stroke-width="1" stroke="#797979" fill="none" />
  <path d="M 577.5 204.75  C 575.68 204.75  574.25 203.32  574.25 201.5  C 574.25 199.68  575.68 198.25  577.5 198.25  C 579.32 198.25  580.75 199.68  580.75 201.5  C 580.75 203.32  579.32 204.75  577.5 204.75  " fill-rule="nonzero" fill="#797979" stroke="none" />
</svg>