<?xml version="1.0" encoding="utf-8"?>
<svg version="1.1" xmlns:xlink="http://www.w3.org/1999/xlink" width="13px" height="13px" viewBox="670 195  13 13" xmlns="http://www.w3.org/2000/svg">
  <path d="M 676.5 195  C 680.14 195  683 197.86  683 201.5  C 683 205.14  680.14 208  676.5 208  C 672.86 208  670 205.14  670 201.5  C 670 197.86  672.86 195  676.5 195  Z " fill-rule="nonzero" fill="#f0f0f0" stroke="none" />
  <path d="M 676.5 195.5  C 679.86 195.5  682.5 198.14  682.5 201.5  C 682.5 204.86  679.86 207.5  676.5 207.5  C 673.14 207.5  670.5 204.86  670.5 201.5  C 670.5 198.14  673.14 195.5  676.5 195.5  Z " stroke-width="1" stroke="#797979" fill="none" />
  <path d="M 676.5 204.75  C 674.68 204.75  673.25 203.32  673.25 201.5  C 673.25 199.68  674.68 198.25  676.5 198.25  C 678.32 198.25  679.75 199.68  679.75 201.5  C 679.75 203.32  678.32 204.75  676.5 204.75  " fill-rule="nonzero" fill="#797979" stroke="none" />
</svg>