<?xml version="1.0" encoding="utf-8"?>
<svg version="1.1" xmlns:xlink="http://www.w3.org/1999/xlink" width="25px" height="22px" xmlns="http://www.w3.org/2000/svg">
  <g transform="matrix(1 0 0 1 -551 -210 )">
    <path d="M 23.92578125 0.0735785953177257  C 24.186197916666668 -0.032701597918989744  24.430338541666668 -0.008175399479746215  24.658203125 0.1471571906354514  C 24.886067708333336 0.3106651802303977  25 0.5273132664437017  25 0.7971014492753634  L 25 18.06354515050167  C 25 18.227053140096615  24.955240885416668 18.37421033073207  24.86572265625 18.505016722408026  C 24.776204427083336 18.635823114083987  24.658203125 18.729840208101077  24.51171875 18.787068004459307  L 16.69921875 21.926421404682273  C 16.50390625 22.016350798959497  16.30859375 22.016350798959497  16.11328125 21.926421404682273  L 8.59375 18.909698996655518  L 1.07421875 21.926421404682273  C 0.9928385416666667 21.96729840208101  0.8951822916666667 21.987736900780376  0.78125 21.987736900780376  C 0.6266276041666667 21.987736900780376  0.4801432291666667 21.942772203641766  0.341796875 21.85284280936455  C 0.11393229166666666 21.689334819769602  0 21.472686733556298  0 21.202898550724637  L 0 3.9364548494983276  C 0 3.772946859903379  0.04475911458333333 3.6257896692679275  0.13427734375 3.4949832775919734  C 0.22379557291666669 3.3641768859160144  0.341796875 3.2701597918989207  0.48828125 3.2129319955406923  L 8.30078125 0.0735785953177257  C 8.49609375 -0.016350798959497315  8.69140625 -0.016350798959497315  8.88671875 0.0735785953177257  L 16.40625 3.090301003344482  L 23.92578125 0.0735785953177257  Z M 16 4.623188405797102  L 9 1.8026755852842797  L 9 17.3768115942029  L 16 20.197324414715716  L 16 4.623188405797102  Z M 8.203125 1.8026755852842797  L 2 4.463768115942029  L 2 20.037904124860646  L 8.203125 17.3768115942029  L 8.203125 1.8026755852842797  Z M 16.796875 20.197324414715716  L 23 17.53623188405797  L 23 1.962095875139353  L 16.796875 4.623188405797102  L 16.796875 20.197324414715716  Z " fill-rule="nonzero" fill="#000000" stroke="none" transform="matrix(1 0 0 1 551 210 )" />
  </g>
</svg>