<?xml version="1.0" encoding="utf-8"?>
<svg version="1.1" xmlns:xlink="http://www.w3.org/1999/xlink" width="25px" height="14px" xmlns="http://www.w3.org/2000/svg">
  <g transform="matrix(1 0 0 1 -204 -11 )">
    <path d="M 24.5361328125 0.46180555555555625  C 24.845377604166668 0.7696759259259245  25 1.1342592592592557  25 1.5555555555555562  C 25 1.9768518518518505  24.845377604166668 2.3414351851851833  24.5361328125 2.6493055555555562  L 13.5986328125 13.538194444444443  C 13.289388020833334 13.846064814814817  12.923177083333334 14  12.5 14  C 12.076822916666668 14  11.710611979166668 13.846064814814817  11.4013671875 13.538194444444443  L 0.4638671875 2.6493055555555562  C 0.15462239583333331 2.3414351851851833  0 1.9768518518518505  0 1.5555555555555562  C 0 1.1342592592592557  0.15462239583333331 0.7696759259259245  0.4638671875 0.46180555555555625  C 0.7731119791666667 0.15393518518518334  1.1393229166666667 0  1.5625 0  L 23.4375 0  C 23.860677083333336 0  24.226888020833336 0.15393518518518334  24.5361328125 0.46180555555555625  Z " fill-rule="nonzero" fill="#000000" stroke="none" transform="matrix(1 0 0 1 204 11 )" />
  </g>
</svg>