<?xml version="1.0" encoding="utf-8"?>
<svg version="1.1" xmlns:xlink="http://www.w3.org/1999/xlink" width="13px" height="13px" viewBox="388 154  13 13" xmlns="http://www.w3.org/2000/svg">
  <path d="M 394.5 154  C 398.14 154  401 156.86  401 160.5  C 401 164.14  398.14 167  394.5 167  C 390.86 167  388 164.14  388 160.5  C 388 156.86  390.86 154  394.5 154  Z " fill-rule="nonzero" fill="#f0f0f0" stroke="none" />
  <path d="M 394.5 154.5  C 397.86 154.5  400.5 157.14  400.5 160.5  C 400.5 163.86  397.86 166.5  394.5 166.5  C 391.14 166.5  388.5 163.86  388.5 160.5  C 388.5 157.14  391.14 154.5  394.5 154.5  Z " stroke-width="1" stroke="#797979" fill="none" />
  <path d="M 394.5 163.75  C 392.68 163.75  391.25 162.32  391.25 160.5  C 391.25 158.68  392.68 157.25  394.5 157.25  C 396.32 157.25  397.75 158.68  397.75 160.5  C 397.75 162.32  396.32 163.75  394.5 163.75  " fill-rule="nonzero" fill="#797979" stroke="none" />
</svg>