<?xml version="1.0" encoding="utf-8"?>
<svg version="1.1" xmlns:xlink="http://www.w3.org/1999/xlink" width="40px" height="40px" xmlns="http://www.w3.org/2000/svg">
  <g transform="matrix(1 0 0 1 -34 -92 )">
    <path d="M 30.338541666666664 18.59375  C 30.668402777777782 18.989583333333332  30.833333333333336 19.458333333333332  30.833333333333336 20  C 30.833333333333336 20.541666666666664  30.668402777777782 21.010416666666664  30.338541666666664 21.40625  L 16.171875 38.40625  C 15.842013888888891 38.802083333333336  15.451388888888891 39  15 39  C 14.548611111111114 39  14.157986111111114 38.802083333333336  13.828125 38.40625  C 13.498263888888891 38.010416666666664  13.333333333333332 37.541666666666664  13.333333333333332 37  L 13.333333333333332 28  L 1.6666666666666665 28  C 1.215277777777778 28  0.8246527777777778 27.802083333333336  0.49479166666666663 27.40625  C 0.16493055555555555 27.010416666666664  0 26.541666666666664  0 26  L 0 14  C 0 13.458333333333329  0.16493055555555555 12.989583333333329  0.49479166666666663 12.59375  C 0.8246527777777778 12.197916666666666  1.215277777777778 12.000000000000002  1.6666666666666665 12  L 13.333333333333332 12  L 13.333333333333332 2.9999999999999982  C 13.333333333333332 2.458333333333327  13.498263888888891 1.9895833333333268  13.828125 1.5937499999999982  C 14.157986111111114 1.1979166666666652  14.548611111111114 1.0000000000000009  15 1.0000000000000009  C 15.451388888888891 1.0000000000000009  15.842013888888891 1.1979166666666652  16.171875 1.5937499999999982  L 30.338541666666664 18.59375  Z M 37.799479166666664 2.640625000000001  C 39.26649305555556 4.401041666666665  40 6.520833333333327  40 9  L 40 31  C 40 33.479166666666664  39.26649305555556 35.598958333333336  37.799479166666664 37.359375  C 36.33246527777778 39.119791666666664  34.56597222222223 40  32.5 40  L 24.166666666666664 40  C 23.94097222222223 40  23.74565972222223 39.901041666666664  23.580729166666664 39.703125  C 23.41579861111111 39.505208333333336  23.333333333333336 39.270833333333336  23.333333333333336 39  C 23.333333333333336 38.916666666666664  23.324652777777782 38.708333333333336  23.307291666666664 38.375  C 23.289930555555557 38.041666666666664  23.285590277777782 37.765625  23.294270833333336 37.546875  C 23.30295138888889 37.328125  23.328993055555557 37.083333333333336  23.372395833333336 36.8125  C 23.41579861111111 36.541666666666664  23.50260416666667 36.338541666666664  23.6328125 36.203125  C 23.763020833333336 36.067708333333336  23.94097222222223 36  24.166666666666664 36  L 32.5 36  C 33.645833333333336 36  34.626736111111114 35.510416666666664  35.442708333333336 34.53125  C 36.25868055555556 33.55208333333333  36.666666666666664 32.375  36 31  L 36 9  C 36.666666666666664 7.625000000000002  36.25868055555556 6.447916666666664  35.442708333333336 5.46875  C 34.626736111111114 4.489583333333327  33.645833333333336 3.999999999999999  32.5 3.999999999999999  L 25 3.999999999999999  L 24.713541666666664 3.999999999999999  L 24.375 3.999999999999999  C 24.375000000000004 3.999999999999999  24.27517361111111 3.9895833333333286  24.075520833333336 3.968750000000001  C 23.875868055555557 3.9479166666666643  23.776041666666664 3.916666666666666  23.776041666666664 3.8750000000000018  C 23.776041666666664 3.8333333333333286  23.70659722222222 3.776041666666665  23.567708333333336 3.7031249999999982  C 23.428819444444446 3.630208333333327  23.368055555555557 3.5364583333333277  23.385416666666664 3.421875000000001  C 23.402777777777782 3.307291666666665  23.385416666666664 3.1666666666666643  23.333333333333336 2.9999999999999982  C 23.333333333333336 2.916666666666665  23.324652777777782 2.7083333333333304  23.307291666666664 2.3749999999999982  C 23.289930555555557 2.041666666666666  23.285590277777782 1.7656250000000018  23.294270833333336 1.5468750000000009  C 23.30295138888889 1.328125  23.328993055555557 1.0833333333333295  23.372395833333336 0.8124999999999982  C 23.41579861111111 0.5416666666666625  23.50260416666667 0.3385416666666652  23.6328125 0.20312500000000178  C 23.763020833333336 0.06770833333332948  23.94097222222223 0  24.166666666666664 0  L 32.5 0  C 34.56597222222223 0  36.33246527777778 0.8802083333333277  37.799479166666664 2.640625000000001  Z " fill-rule="nonzero" fill="#ffffff" stroke="none" transform="matrix(1 0 0 1 34 92 )" />
  </g>
</svg>