<?xml version="1.0" encoding="utf-8"?>
<svg version="1.1" xmlns:xlink="http://www.w3.org/1999/xlink" width="40px" height="40px" xmlns="http://www.w3.org/2000/svg">
  <g transform="matrix(1 0 0 1 -34 -173 )">
    <path d="M 25.816216216216215 30.375  C 26.16216216216216 30.625  26.335135135135136 30.916666666666664  26.335135135135136 31.25  L 26.335135135135136 38.75  C 26.335135135135136 39.083333333333336  26.16216216216216 39.375  25.816216216216215 39.625  C 25.470270270270273 39.875  25.06666666666667 40  24.605405405405406 40  L 14.227027027027026 40  C 13.765765765765767 40  13.362162162162166 39.875  13.016216216216216 39.625  C 12.670270270270269 39.375  12.497297297297296 39.083333333333336  12.497297297297296 38.75  L 12.497297297297296 31.25  C 12.497297297297296 30.916666666666664  12.670270270270269 30.625  13.016216216216216 30.375  C 13.362162162162166 30.125  13.765765765765767 30  14.227027027027026 30  L 24.605405405405406 30  C 25.06666666666667 30  25.470270270270273 30.125  25.816216216216215 30.375  Z M 38.22702702702703 7.546875000000002  C 39.40900900900901 9.119791666666664  40.00000000000001 10.770833333333329  40 12.5  C 40.00000000000001 13.624999999999998  39.77657657657658 14.677083333333334  39.32972972972973 15.656249999999998  C 38.88288288288288 16.635416666666664  38.37837837837838 17.432291666666664  37.81621621621622 18.046875  C 37.25405405405405 18.661458333333336  36.461261261261264 19.28125  35.43783783783784 19.90625  C 34.41441441441442 20.53125  33.58558558558559 20.984375  32.95135135135135 21.265625  C 32.31711711711712 21.546875  31.437837837837836 21.916666666666664  30.313513513513513 22.375  C 29.131531531531536 22.854166666666664  28.144144144144146 23.53125  27.35135135135135 24.40625  C 26.558558558558563 25.28125  26.16216216216216 25.979166666666664  26.16216216216216 26.5  C 26.16216216216216 26.854166666666664  25.98918918918919 27.19270833333333  25.643243243243244 27.515625  C 25.2972972972973 27.83854166666667  24.8936936936937 28  24.43243243243243 28  L 14.054054054054054 28  C 13.621621621621625 28  13.254054054054055 27.80729166666667  12.951351351351352 27.421875  C 12.64864864864865 27.03645833333333  12.497297297297296 26.64583333333333  12.497297297297296 26.25  L 12.497297297297296 24.84375  C 12.497297297297296 23.114583333333336  13.434234234234232 21.484375  15.308108108108108 19.953125  C 17.181981981981984 18.421875  19.243243243243246 17.291666666666664  21.49189189189189 16.5625  C 23.192792792792794 15.999999999999996  24.403603603603603 15.416666666666664  25.124324324324327 14.812500000000002  C 25.845045045045048 14.208333333333334  26.205405405405404 13.416666666666664  26.205405405405404 12.4375  C 26.205405405405404 11.562499999999996  25.535135135135135 10.791666666666666  24.194594594594598 10.125000000000002  C 22.854054054054057 9.458333333333332  21.304504504504507 9.125  19.545945945945945 9.125  C 17.672072072072073 9.125  16.115315315315314 9.42708333333333  14.875675675675675 10.031249999999998  C 13.866666666666667 10.552083333333332  12.324324324324325 11.749999999999998  10.248648648648649 13.624999999999998  C 9.873873873873876 13.95833333333333  9.427027027027027 14.124999999999996  8.908108108108108 14.125  C 8.562162162162162 14.124999999999996  8.201801801801803 14.041666666666664  7.827027027027027 13.875000000000002  L 0.7351351351351352 9.968750000000002  C 0.3603603603603608 9.760416666666663  0.13693693693693776 9.500000000000002  0.06486486486486487 9.187500000000002  C -0.007207207207206797 8.875000000000002  0.07207207207207228 8.583333333333334  0.3027027027027027 8.312499999999998  C 4.915315315315317 2.770833333333327  11.603603603603606 0  20.36756756756757 0  C 22.673873873873877 0  24.99459459459459 0.3229166666666661  27.32972972972973 0.9687499999999982  C 29.664864864864864 1.6145833333333304  31.76936936936937 2.4791666666666634  33.64324324324324 3.5625000000000018  C 35.51711711711712 4.645833333333327  37.04504504504505 5.973958333333327  38.22702702702703 7.546875000000002  Z " fill-rule="nonzero" fill="#ffffff" stroke="none" transform="matrix(1 0 0 1 34 173 )" />
  </g>
</svg>