<?xml version="1.0" encoding="utf-8"?>
<svg version="1.1" xmlns:xlink="http://www.w3.org/1999/xlink" width="40px" height="40px" xmlns="http://www.w3.org/2000/svg">
  <g transform="matrix(1 0 0 1 -34 -572 )">
    <path d="M 8.385131017672151 33.81618989653074  C 8.69388584196628 33.507810914992895  8.848263254113345 33.14262527896125  8.848263254113345 32.72063298843579  C 8.848263254113345 32.29864069791033  8.69388584196628 31.93345506187868  8.385131017672151 31.62507608034084  C 8.076376193378023 31.316697098802997  7.710745480398132 31.162507608034083  7.28823887873248 31.162507608034083  C 6.865732277066829 31.162507608034083  6.50010156408694 31.316697098802997  6.1913467397928095 31.62507608034084  C 5.882591915498681 31.93345506187868  5.728214503351615 32.29864069791033  5.728214503351615 32.72063298843579  C 5.728214503351615 33.14262527896125  5.882591915498681 33.507810914992895  6.1913467397928095 33.81618989653074  C 6.50010156408694 34.12456887806857  6.865732277066829 34.278758368837494  7.28823887873248 34.278758368837494  C 7.710745480398132 34.278758368837494  8.076376193378023 34.12456887806857  8.385131017672151 33.81618989653074  Z M 20.31687995124924 19.70785149117468  C 21.54377412147065 20.93325218096977  22.953483648182 21.86244674376141  24.546008531383304 22.49543517954961  L 7.921998781230957 39.09920876445526  C 7.320739386552916 39.699736254818426  6.589477960593135 40  5.728214503351615 40  C 4.883201300020314 40  4.1438147471054245 39.699736254818426  3.510054844606947 39.09920876445526  L 0.9262644728823888 36.469872185027384  C 0.30875482429412954 35.88557516737675  0 35.15520389531345  0 34.278758368837494  C 0 33.418543315074054  0.30875482429412954 32.68005680665449  0.9262644728823888 32.06329884357882  L 17.52589884216941 15.483870967741936  C 18.159658744667887 17.07445729356867  19.089985781027828 18.48245080137959  20.31687995124924 19.70785149117468  Z M 39.79280926264473 11.296409007912356  C 39.93093642088158 11.458713735037529  40.00000000000001 11.661594643944007  40 11.90505173463177  C 40.00000000000001 12.538040170419965  39.81312208003251 13.398255224183405  39.4393662400975 14.485696895922096  C 38.67560430631728 16.66058023939947  37.33902092220191 18.425644146885777  35.42961608775137 19.78088861838101  C 33.520211253300836 21.13613308987624  31.41986593540524 21.81375532562386  29.128580134064595 21.81375532562386  C 26.12228316067439 21.81375532562386  23.550680479382493 20.746601744775816  21.41377209018891 18.61229458307973  C 19.276863700995325 16.477987421383645  18.20840950639854 13.90951511462771  18.20840950639854 10.906877662811931  C 18.20840950639854 7.904240210996143  19.276863700995325 5.3357679042402095  21.41377209018891 3.2014607425441266  C 23.550680479382493 1.0671535808480392  26.12228316067439 0  29.128580134064595 0  C 30.071094860857205 0  31.05829778590291 0.13390139987827343  32.09018890920171 0.40170419963481585  C 33.122080032500506 0.6695069993913583  33.995531180174694 1.046865489957396  34.71054235222425 1.5337796713329288  C 34.970546414787734 1.7123148711706193  35.10054844606947 1.9395414891458662  35.10054844606947 2.215459525258674  C 35.10054844606947 2.491377561371473  34.970546414787734 2.7186041793467197  34.71054235222425 2.897139379184419  L 27.56855575868373 7.011564211807668  L 27.56855575868373 12.465003043213635  L 32.27300426569165 15.069993913572732  C 32.35425553524274 15.02130249543518  32.996140564696326 14.627713532156621  34.1986593540524 13.889227023737067  C 35.401178143408494 13.150740515317505  36.50213284582571 12.493406370460537  37.50152346130408 11.917224589166157  C 38.50091407678245 11.341042807871776  39.07373552711761 11.052951917224586  39.21998781230957 11.052951917224586  C 39.46374162096283 11.052951917224586  39.65468210440788 11.134104280787177  39.79280926264473 11.296409007912356  Z " fill-rule="nonzero" fill="#ffffff" stroke="none" transform="matrix(1 0 0 1 34 572 )" />
  </g>
</svg>